# xmcd
#
# Track frame offsets: 
#        225
#        18902
#        35090
#        52114
#        69200
#        87205
#        102934
#        122359
#        145194
#        163789
#        180964
#        202292
#        222508
#        241745
#        262000
#        278825
#        296461
#        311370
#        327372
#        343408
#
# Disc length: 4797 seconds
#
# Revision: 0
# Processed by: cddbd v1.5.2PL0 Copyright (c) Steve Scherf et al.
# Submitted via: ExactAudioCopyFreeDBPlugin 1.0
#
DISCID=2e12ba14
DTITLE=Soul Woman - Soul Woman
DYEAR=2018
DGENRE=R&B
TTITLE0=Mary J. Blige - No More Drama
TTITLE1=Mica Paris - My One Temptation
TTITLE2=Gabrielle - Dreams
TTITLE3=Soul II Soul - Back to Life
TTITLE4=Young Disciples - Apparently Nothin'
TTITLE5=Incognito - Always
TTITLE6=Shanice - I Love Your Smile
TTITLE7=En Vogue - Hold on
TTITLE8=Beverley Knight - Flavour of the Old School
TTITLE9=Drizabone - Real Love
TTITLE10=Mantronix - Got to Have Your Love
TTITLE11=Indeep - Last Night a DJ Saved My Life
TTITLE12=Pebbles - Girlfriend
TTITLE13=Hinda Hicks - I Wanna Be Your Lady
TTITLE14=Erykah Badu - On and On
TTITLE15=India.Arie - Video
TTITLE16=Faith Evans - Again
TTITLE17=Amy Winehouse - Rehab
TTITLE18=Corinne Bailey Rae - Put Your Records On
TTITLE19=Vanessa Williams - Save the Best for Last
EXTD=
EXTT0=
EXTT1=
EXTT2=
EXTT3=
EXTT4=
EXTT5=
EXTT6=
EXTT7=
EXTT8=
EXTT9=
EXTT10=
EXTT11=
EXTT12=
EXTT13=
EXTT14=
EXTT15=
EXTT16=
EXTT17=
EXTT18=
EXTT19=
PLAYORDER=
